<svg width="505" height="440" viewBox="0 0 505 440" fill="none" xmlns="http://www.w3.org/2000/svg">
<circle cx="108.5" cy="186.5" r="72.5" fill="#E5E5E5"/>
<circle cx="393.5" cy="185.5" r="72.5" fill="#E5E5E5"/>
<ellipse cx="245" cy="378.5" rx="213" ry="31.5" fill="#E5E5E5"/>
<path fill-rule="evenodd" clip-rule="evenodd" d="M393 264C435.526 264 470 229.526 470 187C470 144.474 435.526 110 393 110C350.474 110 316 144.474 316 187C316 229.526 350.474 264 393 264ZM393 250.25C427.932 250.25 456.25 221.932 456.25 187C456.25 152.068 427.932 123.75 393 123.75C358.068 123.75 329.75 152.068 329.75 187C329.75 221.932 358.068 250.25 393 250.25Z" fill="#262626"/>
<circle cx="364.125" cy="185.625" r="9.625" fill="#262626"/>
<path fill-rule="evenodd" clip-rule="evenodd" d="M406.872 110.827C395.587 139.336 367.773 159.5 335.25 159.5C332.093 159.5 328.981 159.31 325.924 158.941C336.273 130.395 363.63 110 395.749 110C399.529 110 403.244 110.282 406.872 110.827Z" fill="#262626"/>
<path fill-rule="evenodd" clip-rule="evenodd" d="M378.433 112.03C383.989 110.703 389.787 110 395.75 110C436.757 110 470 143.243 470 184.25C470 191.475 468.968 198.459 467.043 205.063C462.646 205.843 458.121 206.25 453.5 206.25C410.974 206.25 376.5 171.776 376.5 129.25C376.5 123.33 377.168 117.567 378.433 112.03Z" fill="#262626"/>
<path d="M410.017 252.052H406.142C398.396 255.663 389.229 255.819 381.149 252.052H377.274C368.233 252.052 360.903 259.482 360.903 268.647V315.665C360.903 320.248 364.568 323.963 369.089 323.963H374.546V370.981C374.546 375.564 378.211 379.279 382.732 379.279H404.56C409.08 379.279 412.745 375.564 412.745 370.981V323.963H418.202C422.723 323.963 426.388 320.248 426.388 315.665V268.647C426.388 259.482 419.058 252.052 410.017 252.052Z" fill="#262626"/>
<path fill-rule="evenodd" clip-rule="evenodd" d="M109 264C66.4741 264 32 229.526 32 187C32 144.474 66.4741 110 109 110C151.526 110 186 144.474 186 187C186 229.526 151.526 264 109 264ZM109 250.25C74.068 250.25 45.75 221.932 45.75 187C45.75 152.068 74.068 123.75 109 123.75C143.932 123.75 172.25 152.068 172.25 187C172.25 221.932 143.932 250.25 109 250.25Z" fill="#262626"/>
<circle r="9.625" transform="matrix(-1 0 0 1 137.875 185.625)" fill="#262626"/>
<path fill-rule="evenodd" clip-rule="evenodd" d="M95.1283 110.827C106.413 139.336 134.227 159.5 166.75 159.5C169.907 159.5 173.019 159.31 176.076 158.941C165.727 130.395 138.37 110 106.251 110C102.471 110 98.7565 110.282 95.1283 110.827Z" fill="#262626"/>
<path fill-rule="evenodd" clip-rule="evenodd" d="M123.567 112.03C118.011 110.703 112.213 110 106.25 110C65.2431 110 32.0003 143.243 32.0003 184.25C32.0003 191.475 33.0322 198.459 34.9568 205.063C39.3536 205.843 43.8794 206.25 48.5002 206.25C91.0261 206.25 125.5 171.776 125.5 129.25C125.5 123.33 124.832 117.567 123.567 112.03Z" fill="#262626"/>
<path d="M91.9834 252.052H95.8579C103.604 255.663 112.771 255.819 120.851 252.052H124.726C133.767 252.052 141.097 259.482 141.097 268.647V315.665C141.097 320.248 137.432 323.963 132.911 323.963H127.454V370.981C127.454 375.564 123.789 379.279 119.268 379.279H97.4404C92.9196 379.279 89.2549 375.564 89.2549 370.981V323.963H83.7979C79.2771 323.963 75.6124 320.248 75.6124 315.665V268.647C75.6124 259.482 82.9418 252.052 91.9834 252.052Z" fill="#262626"/>
</svg>
