<svg width="505" height="440" viewBox="0 0 505 440" fill="none" xmlns="http://www.w3.org/2000/svg">
<ellipse cx="253" cy="392.5" rx="213" ry="31.5" fill="#E5E5E5"/>
<path d="M276 110V158C276 161.183 277.264 164.235 279.515 166.485C281.765 168.736 284.817 170 288 170H336" stroke="#262626" stroke-width="21.6875" stroke-linecap="round" stroke-linejoin="round"/>
<path d="M312.143 325H192.857C186.53 325 180.462 322.483 175.988 318.003C171.514 313.523 169 307.447 169 301.111V133.889C169 127.553 171.514 121.477 175.988 116.997C180.462 112.517 186.53 110 192.857 110H276.357L336 169.722V301.111C336 307.447 333.486 313.523 329.012 318.003C324.538 322.483 318.47 325 312.143 325Z" stroke="#262626" stroke-width="21.6875" stroke-linecap="round" stroke-linejoin="round"/>
<path d="M217 182H229" stroke="#262626" stroke-width="21.6875" stroke-linecap="round" stroke-linejoin="round"/>
<path d="M117 79L125.485 87.4853" stroke="#262626" stroke-width="21.6875" stroke-linecap="round" stroke-linejoin="round"/>
<path d="M388 317L396.485 325.485" stroke="#262626" stroke-width="21.6875" stroke-linecap="round" stroke-linejoin="round"/>
<path d="M387.485 79L379 87.4853" stroke="#262626" stroke-width="21.6875" stroke-linecap="round" stroke-linejoin="round"/>
<path d="M408 207L396 207" stroke="#262626" stroke-width="21.6875" stroke-linecap="round" stroke-linejoin="round"/>
<path d="M109 207L97 207" stroke="#262626" stroke-width="21.6875" stroke-linecap="round" stroke-linejoin="round"/>
<path d="M253 48L253 60" stroke="#262626" stroke-width="21.6875" stroke-linecap="round" stroke-linejoin="round"/>
<path d="M253 373L253 385" stroke="#262626" stroke-width="21.6875" stroke-linecap="round" stroke-linejoin="round"/>
<path d="M117.485 309L109 317.485" stroke="#262626" stroke-width="21.6875" stroke-linecap="round" stroke-linejoin="round"/>
<path d="M217 229H288" stroke="#262626" stroke-width="21.6875" stroke-linecap="round" stroke-linejoin="round"/>
<path d="M217 277H288" stroke="#2C3E50" stroke-width="21.6875" stroke-linecap="round" stroke-linejoin="round"/>
</svg>
